<svg xmlns="http://www.w3.org/2000/svg" viewBox="0 0 248.47 226.19"><defs><style>.cls-1{fill:#fe0707;}</style></defs><g id="Layer_2" data-name="Layer 2"><g id="Layer_1-2" data-name="Layer 1"><path class="cls-1" d="M65.89,0c23.13.62,41.64,12.1,55.4,31.85,2.32,3.33,3.2,3.81,5.76.11,12.44-18,29-29.64,51.29-31.56C201.85-1.64,220,8.55,234,26.54c19.27,24.69,17.4,51.26,5.39,78.13C231.32,122.73,218,137.1,204.33,151c-25.13,25.48-52,49.11-77.9,73.8-1.31,1.26-2.25,2.2-4.05.45-31.94-31.07-66.61-59.38-95.66-93.39C12.87,115.63,3.54,97.33.57,75.71-4.88,36,29.45-.29,65.89,0Z"/></g></g></svg>